# xmcd
#
# Track frame offsets:
#	150
#	13982
#	23802
#	34427
#	47635
#	58532
#	70722
#	86820
#	100117
#	114785
#	127520
#	140852
#	151597
#	162542
#
# Disc length: 2328 seconds
#
# Revision: 3
# Processed by: cddbd v1.5.2PL0 Copyright (c) Steve Scherf et al.
# Submitted via: audiograbber 1.83.01
#
DISCID=b109160e
DTITLE=George Jones and Tammy Wynette - Love Songs
DYEAR=2004
DGENRE=Country
TTITLE0=The Ceremony (1972)
TTITLE1=When True Love Steps In (1971)
TTITLE2=Take Me (1971)
TTITLE3=To Live On Love (1972)
TTITLE4=It's So Sweet (1971)
TTITLE5=We Could (1980)
TTITLE6=My Elusive Dreams (1973)
TTITLE7=If Loving You Starts Hurting Me (1973)
TTITLE8=When I Stop Dreaming (1973)
TTITLE9=Even The Bad Times Are Good (1976)
TTITLE10=We're Gonna Hold On (1973)
TTITLE11=Near You (1976)
TTITLE12=It's Been A Beautiful Life (Loving You) (1972)
TTITLE13=Never Grow Cold (1971)
EXTD=Track dates provided.
EXTT0=
EXTT1=
EXTT2=
EXTT3=
EXTT4=
EXTT5=
EXTT6=
EXTT7=
EXTT8=
EXTT9=
EXTT10=
EXTT11=
EXTT12=
EXTT13=
PLAYORDER=
